<svg xmlns="http://www.w3.org/2000/svg" viewBox="0 0 200 220"><path fill="currentColor" d="M200 80.635c0-2.463-.96-4.38-2.877-5.746L102.671 1.786c-2.74-2.189-5.751-2.189-9.037 0L2.464 74.889C.823 76.254 0 78.172 0 80.635v131.828c0 2.192.685 3.969 2.055 5.338 1.369 1.37 3.01 2.055 4.928 2.055h54.21c2.189 0 3.968-.686 5.338-2.055 1.37-1.37 2.054-3.146 2.054-5.338V131.56h62.421v80.901c0 2.193.684 3.972 2.054 5.34 1.37 1.37 3.149 2.056 5.338 2.056h54.21c2.189 0 3.968-.686 5.338-2.055 1.37-1.37 2.054-3.148 2.054-5.34V80.634z"/></svg>