<svg version="1.1" id="icon-dl" xmlns="http://www.w3.org/2000/svg" x="0" y="0" viewBox="0 0 100 100" style="enable-background:new 0 0 100 100" xml:space="preserve"><style>.st2{fill:none;stroke:#fff;stroke-width:4.1;stroke-linecap:round;stroke-linejoin:round;stroke-miterlimit:10}.st3{fill:#fff}</style><path d="M91 67.938c0 2.818-2.306 5.124-5.125 5.124h-71.75C11.306 73.063 9 70.757 9 67.939V32.062c0-2.818 2.306-5.124 5.125-5.124h71.75c2.819 0 5.125 2.306 5.125 5.125v35.874z" style="fill:none;stroke:#fff;stroke-width:4.1;stroke-miterlimit:10"/><path style="fill:none;stroke:#fff;stroke-width:3.075;stroke-miterlimit:10" d="M50 26.938v46.125"/><path class="st2" d="M70.64 38.311v4.853m-9.817.253h19.635m-4.176.988s-1.918 17.434-15.46 17.434"/><path class="st2" d="M64.998 44.405s1.918 17.434 15.46 17.434"/><path class="st3" d="M26.106 53.611h7.381l-3.69-9.48z"/><path class="st3" d="M10.513 28.436v43.309h38.62v-43.31h-38.62zM39.568 63.58a2.05 2.05 0 0 1-2.654-1.166l-1.83-4.703H24.51l-1.83 4.703a2.05 2.05 0 1 1-3.821-1.488l9.027-23.19c.005-.012.014-.023.019-.036.03-.072.068-.14.106-.208.028-.05.053-.104.085-.151.038-.057.084-.109.129-.162.04-.05.078-.102.124-.147.044-.044.095-.082.144-.122.054-.045.106-.092.164-.13.047-.032.1-.056.15-.084.069-.038.137-.077.21-.107.012-.006.023-.014.036-.019.04-.016.082-.02.124-.034.075-.024.15-.048.227-.063.06-.012.12-.017.18-.023.072-.008.143-.015.216-.015.066 0 .13.007.194.014.067.006.133.012.2.025.073.015.144.037.215.06.044.014.088.02.131.036.013.005.024.014.038.02.071.029.138.067.206.105.051.028.104.053.152.085.058.038.11.085.164.13.048.04.1.078.144.122.046.046.084.098.125.147.044.054.09.105.128.162.032.048.057.1.085.151.038.069.076.136.106.208.005.013.013.024.019.037l9.027 23.189a2.05 2.05 0 0 1-1.166 2.654z"/></svg>