<svg xmlns="http://www.w3.org/2000/svg" viewBox="0 0 650 400" style="enable-background:new 0 0 650 400" xml:space="preserve"><path d="M320.8 43c41.952 0 81.373 16.352 111.06 46.04 29.688 29.687 46.04 69.108 46.04 111.06s-16.352 81.373-46.04 111.06c-29.687 29.688-69.108 46.04-111.06 46.04s-81.373-16.352-111.06-46.04c-29.688-29.687-46.04-69.108-46.04-111.06s16.352-81.373 46.04-111.06C239.427 59.255 278.848 43 320.8 43m0-24.3c-100.1 0-181.3 81.2-181.3 181.3s81.2 181.3 181.3 181.3S502.1 300.1 502.1 200 420.9 18.7 320.8 18.7z" style="fill:#0059b3"/><path style="fill:none;stroke:#0059b3;stroke-width:28;stroke-linecap:round;stroke-linejoin:round;stroke-miterlimit:10" d="M240.563 203.712 302.85 265l108.575-108.575"/></svg>