<svg version="1.1" id="レイヤー_1" xmlns="http://www.w3.org/2000/svg" x="0" y="0" viewBox="0 0 650 400" style="enable-background:new 0 0 650 400" xml:space="preserve"><style>.st0{fill:#0059b3}</style><path class="st0" d="M314.8 125.9h21.3v21.3h-21.3v-21.3z"/><path class="st0" d="m423.5 263.8-49.3-106.1c2.8-6.5 4.4-13.7 4.4-21.2 0-17.4-8.4-32.8-21.3-42.6V50.6c0-17.6-14.3-31.9-31.9-31.9-17.6 0-31.9 14.3-31.9 31.9V94c-12.9 9.7-21.3 25.2-21.3 42.6 0 7.5 1.6 14.7 4.4 21.2l-49.3 106.1c-31.4 6.7-83.6 22.5-83.6 54.4 0 13.3 9 25.1 26.7 35.1l10.5-18.6C171 329.2 165 323 165 318.3c0-7 14-19.8 50.9-29.8l-13.1 28.3c-5.8 12.5-2.8 27 6.5 36.2l-9.6 19.8 19.2 9.3 9.7-20c13.3 1.4 26.3-5.7 32.2-18.3l31.1-67c11-.7 22.3-1.1 33.6-1.1s22.6.4 33.6 1.1l31.1 67c5.9 12.6 19 19.6 32.2 18.3l9.7 20 19.2-9.3-9.6-19.8c9.1-9 12.4-23.4 6.5-36.2l-13.1-28.3c36.9 10 50.9 22.7 50.9 29.8 0 4.7-5.9 10.9-15.9 16.5l10.4 18.6c17.7-10 26.7-21.8 26.7-35.1-.1-32-52.4-47.8-83.7-54.5zM314.8 50.6c0-5.9 4.8-10.6 10.6-10.6 5.9 0 10.6 4.8 10.6 10.6v33.7c-3.4-.7-7-1.1-10.6-1.1-3.6 0-7.2.4-10.6 1.1V50.6zm10.6 54c17.6 0 31.9 14.3 31.9 31.9s-14.3 31.9-31.9 31.9c-17.6 0-31.9-14.3-31.9-31.9s14.3-31.9 31.9-31.9zm-84 230.1c-2.5 5.3-8.8 7.6-14.1 5.1-5.3-2.5-7.6-8.8-5.1-14.2l69-148.6c5.4 4.6 11.8 8.1 18.7 10.3l-68.5 147.4zm60.5-79.8 23.5-50.6 23.5 50.6c-15.5-.7-31.4-.7-47 0zm121.7 85c-5.4 2.5-11.7.2-14.1-5.1l-68.4-147.3c6.9-2.1 13.3-5.7 18.7-10.3l69 148.6c2.5 5.3.2 11.6-5.2 14.1z"/></svg>