<svg version="1.1" id="レイヤー_1" xmlns="http://www.w3.org/2000/svg" x="0" y="0" viewBox="0 0 650 400" style="enable-background:new 0 0 650 400" xml:space="preserve"><style>.st0{fill:#0059b3}</style><path class="st0" d="M319.4 261.8c-10.4 0-18.8 8.6-18.8 19 0 10.1 8.1 19 18.8 19s19-8.9 19-19c.1-10.4-8.6-19-19-19zm3.3-144c-33.3 0-48.6 19.7-48.6 33.1 0 9.6 8.1 14.1 14.8 14.1 13.3 0 7.9-19 33.1-19 12.3 0 22.2 5.4 22.2 16.8 0 13.3-13.8 21-22 27.9-7.2 6.2-16.5 16.3-16.5 37.5 0 12.8 3.5 16.5 13.6 16.5 12.1 0 14.6-5.4 14.6-10.1 0-12.8.2-20.2 13.8-30.9 6.7-5.2 27.6-22 27.6-45.2s-21-40.7-52.6-40.7z"/><path class="st0" d="M325 18.7c-100.2 0-181.3 81.1-181.3 181.3v167.1c0 7.8 6.3 14.2 14.2 14.2H325c100.2 0 181.3-81.1 181.3-181.3 0-100.2-81.1-181.3-181.3-181.3zm0 341.3H165V200c0-88.4 71.6-160 160-160s160 71.6 160 160-71.6 160-160 160z"/></svg>