<svg xmlns="http://www.w3.org/2000/svg" viewBox="0 0 650 400" style="enable-background:new 0 0 650 400" xml:space="preserve"><style>.st13{fill:#004ea2}</style><g id="レイヤー_17"><path class="st13" d="M83.245 41.146H240.22c6.852 0 12.472 6.508 12.472 14.392V174.7c0 7.938-5.62 14.446-12.472 14.446H83.2c-6.854 0-12.473-6.508-12.473-14.445V55.59c0-7.937 5.62-14.445 12.518-14.445z"/><path class="st13" d="M85.225 41.146h181.813c7.937 0 14.445 6.508 14.445 14.392V174.7c0 7.938-6.508 14.446-14.445 14.446H85.172c-7.937 0-14.445-6.508-14.445-14.445V55.59c0-7.937 6.508-14.445 14.498-14.445z"/><path class="st13" d="M281.483 220.073v-46.97h-46.97"/><path d="M226.824 101.546c5.781 0 10.447 4.665 10.447 10.446s-4.665 10.447-10.447 10.447-10.447-4.665-10.447-10.447c0-5.578 4.463-10.447 10.447-10.447zm-50.716 0c5.782 0 10.447 4.665 10.447 10.446s-4.665 10.447-10.447 10.447-10.446-4.665-10.446-10.447c0-5.578 4.462-10.447 10.446-10.447zm-50.715 0c5.78 0 10.446 4.665 10.446 10.446s-4.665 10.447-10.446 10.447-10.447-4.665-10.447-10.447c0-5.578 4.462-10.447 10.447-10.447z" style="fill:#fff"/><path d="m483.465 129.095-239.024 89.629-71.14-41.077v132.655l71.14-41.077 239.024 89.63z" style="fill:#ccdcec;stroke-width:15;stroke:#004ea2;stroke-miterlimit:10"/><path d="M543.112 243.974h36.161m-36.161 52.691 34.913 19.007m-34.913-124.388 34.913-19.008" style="fill:none;stroke:#004ea2;stroke-width:15;stroke-miterlimit:10"/></g></svg>