<svg version="1.1" id="レイヤー_1" xmlns="http://www.w3.org/2000/svg" x="0" y="0" viewBox="0 0 650 400" style="enable-background:new 0 0 650 400" xml:space="preserve"><style>.st0{fill:#0059b3}</style><path class="st0" d="M321.5 157.6c-8.5 0-15.5 6.9-15.5 15.5V298c0 8.5 6.9 15.5 15.5 15.5 8.5 0 15.5-6.9 15.5-14.6V173c0-8.5-7-15.4-15.5-15.4zm-1.4-71.7c-8.5 0-15.5 6.9-15.5 15.5V116c0 8.5 6.9 15.5 15.5 15.5 8.5 0 14.6-6.9 15.5-15.5v-14.6c-.2-8.6-7.1-15.5-15.5-15.5z"/><path class="st0" d="M320.8 38.7c43.1 0 83.6 16.8 114.1 47.3 30.5 30.5 47.3 71 47.3 114.1 0 43.1-16.8 83.6-47.3 114.1-30.5 30.5-71 47.3-114.1 47.3-43.1 0-83.6-16.8-114.1-47.3-30.5-30.5-47.3-71-47.3-114.1 0-43.1 16.8-83.6 47.3-114.1 30.5-30.6 71-47.3 114.1-47.3m0-20c-100.1 0-181.3 81.2-181.3 181.3s81.2 181.3 181.3 181.3c100.1 0 181.3-81.2 181.3-181.3S420.9 18.7 320.8 18.7z"/></svg>