<svg xmlns="http://www.w3.org/2000/svg" viewBox="0 0 650 400" style="enable-background:new 0 0 650 400" xml:space="preserve"><path d="M493.8 182.8C492.4 90.7 417.5 16.5 325 16.5c-92.5 0-167.4 74.1-168.8 166.3V239c0 21.6 17.6 39.2 39.2 39.2s39.2-17.6 39.2-39.2v-55c0-21.6-17.6-39.2-39.2-39.2-1.6 0-3.1.1-4.6.3 17.3-57.7 70.9-99.9 134.2-99.9 63.3 0 116.9 42.2 134.2 99.9-1.5-.2-3.1-.3-4.6-.3-21.6 0-39.2 17.6-39.2 39.2v55c0 21.6 17.6 39.2 39.2 39.2h1.1c-14.3 28-43.5 47.3-77.1 47.3h-12.3c-6-17.1-22.2-29.4-41.4-29.4-24.1 0-43.8 19.6-43.8 43.8 0 24.1 19.6 43.8 43.8 43.8 19.1 0 35.4-12.3 41.4-29.4h12.3c63.5 0 115.1-51.6 115.1-115.1v-55c.1-.6.1-1 .1-1.4zm-298.4-9.4c5.8 0 10.5 4.7 10.5 10.5v55c0 5.8-4.7 10.5-10.5 10.5s-10.5-4.7-10.5-10.5v-55.4c.2-5.6 4.8-10.1 10.5-10.1zM325 354.8c-8.3 0-15.1-6.8-15.1-15.1s6.8-15.1 15.1-15.1 15.1 6.8 15.1 15.1-6.8 15.1-15.1 15.1zm140.1-115.9c0 5.8-4.7 10.5-10.5 10.5s-10.5-4.7-10.5-10.5v-55c0-5.8 4.7-10.5 10.5-10.5 5.7 0 10.3 4.5 10.5 10.1.1 3.5 0-.7 0 55.4z" style="fill:#0059b3"/></svg>