<svg version="1.1" id="レイヤー_1" xmlns="http://www.w3.org/2000/svg" x="0" y="0" viewBox="0 0 650 400" style="enable-background:new 0 0 650 400" xml:space="preserve"><style>.st0{fill:#0059b3}</style><path class="st0" d="M496.8 60.2c1.7 0 3.3 1.6 3.3 3.3v225.2c0 1.7-1.6 3.3-3.3 3.3H153.2c-1.7 0-3.3-1.6-3.3-3.3V63.4c0-1.7 1.6-3.3 3.3-3.3h343.7m-.1-24H153.2c-15 0-27.3 12.3-27.3 27.2v225.2c0 15 12.3 27.3 27.3 27.3h343.7c15 0 27.3-12.3 27.3-27.3V63.4c0-15-12.3-27.3-27.4-27.3z"/><path d="M393.2 318.4V369m44.5-50.6V369" style="fill:none;stroke:#0059b3;stroke-width:20;stroke-linecap:round;stroke-linejoin:round;stroke-miterlimit:10"/><path class="st0" d="M276 128.4V109h-8.6v19.4h-16.3v33.9h16.3v80.8h8.6v-80.8h16.3v-33.9zm53.3 40.4V109h-8.6v59.8h-16.3v33.9h16.3v40.4h8.6v-40.4h16.3v-33.9zm53.3-40.4V109H374v19.4h-16.3v33.9H374v80.8h8.6v-80.8h16.3v-33.9z"/></svg>