<?xml version="1.0" encoding="UTF-8"?>
<svg id="_x32_" xmlns="http://www.w3.org/2000/svg" version="1.1" viewBox="0 0 512 512">
  <!-- Generator: Adobe Illustrator 29.4.0, SVG Export Plug-In . SVG Version: 2.1.0 Build 152)  -->
  <defs>
    <style>
      .st0 {
        fill: #fff;
      }
    </style>
  </defs>
  <path class="st0" d="M94.811,21.696c-35.18,22.816-42.091,94.135-28.809,152.26199,10.344,45.26601,32.336,105.98701,69.42,163.16499,34.886,53.79001,83.55701,102.022,120.66901,129.92798,47.65701,35.832,115.59399,58.60797,150.77399,35.79199,17.789-11.53699,44.21799-43.05798,45.42401-48.71399,0,0-15.49799-23.896-18.89899-29.14001l-51.97198-80.13501c-3.862-5.95499-28.082-.51199-40.38599,6.457-16.59698,9.40399-31.88199,34.63602-31.88199,34.63602-11.38,6.57501-20.91199.02399-40.828-9.142-24.47701-11.26199-51.99701-46.254-73.89999-77.94699-20.005-32.923-40.73199-72.32199-41.032-99.26401-.24699-21.922-2.341-33.29601,8.304-41.006,0,0,29.272-3.666,44.627-14.98399,11.381-8.392,26.228-28.286,22.366-34.242l-51.972-80.134C173.31406,23.98397,157.81606.08797,157.81606.08797c-5.65706-1.20497-45.21606,10.07103-63.00506,21.60803Z"/>
</svg>