<svg version="1.1" id="レイヤー_1" xmlns="http://www.w3.org/2000/svg" x="0" y="0" viewBox="0 0 650 400" style="enable-background:new 0 0 650 400" xml:space="preserve"><style>.st0{fill:#0059b3}</style><path class="st0" d="M504.3 43.6c2 0 3.6 1.7 3.6 3.6V285c0 2-1.7 3.6-3.6 3.6H145.7c-2 0-3.6-1.7-3.6-3.6V47.2c0-2 1.7-3.6 3.6-3.6h358.6m0-20.1H145.7c-13 0-23.7 10.7-23.7 23.7v237.9c0 13 10.7 23.7 23.7 23.7h358.7c13 0 23.7-10.7 23.7-23.7V47.2c-.1-13-10.7-23.7-23.8-23.7z"/><path class="st0" d="M394.6 293c-7 0-12.9 5.8-12.9 12.9v57.7c0 7 5.8 12.9 12.9 12.9 7.1 0 12.9-5.8 12.9-12.9v-57.7c-.1-7.1-5.9-12.9-12.9-12.9zm45.4 0c-7 0-12.9 5.8-12.9 12.9v57.7c0 7 5.8 12.9 12.9 12.9 7.1 0 12.9-5.8 12.9-12.9v-57.7c-.1-7.1-5.9-12.9-12.9-12.9z"/><path d="M221.7 125.9c6.2 0 11.6 1.3 16.4 4.1 4.6 2.7 6.9 5.4 6.9 8.4 0 1.5-.5 2.8-1.7 3.9a6.42 6.42 0 0 1-4.6 1.9c-1.6 0-3.2-.8-4.9-2.4-3.7-3.5-7.7-5.2-12.2-5.2-3.6 0-6.5.6-8.7 1.9-2.6 1.4-3.8 3.5-3.8 6.2 0 2.4 1.2 4.5 3.5 6.2 1.7 1.2 5.9 2.9 12.4 4.8 8.5 2.5 14.3 5 17.4 7.5 4.6 3.7 7 8.5 7 14.4 0 6.9-2.8 12.1-8.2 16-4.9 3.5-11.3 5.2-19.2 5.2-7.4 0-14-1.8-19.7-5.4-5.4-3.4-8-6.7-8-10 0-1.3.4-2.5 1.3-3.6 1.2-1.5 2.8-2.3 4.6-2.3 1.3 0 2.6.4 3.7 1.2.4.3 1 .9 2 1.9 4.7 4.6 10.1 6.9 16.2 6.9 4.1 0 7.3-.8 9.9-2.3 2.8-1.6 4.1-3.9 4.1-6.9 0-3-1.4-5.4-4.3-7.2-2-1.2-6.2-2.9-13-5-7.1-2.2-12.4-4.6-15.8-7-4.3-3-6.5-7.6-6.5-13.7 0-4.9 1.8-9.2 5.3-12.7 4.4-4.5 11.1-6.8 19.9-6.8zm58.8 13.1h-20c-.9 0-1.7-.2-2.3-.6-1.6-1-2.4-2.7-2.4-5.1 0-2.1.6-3.6 1.8-4.7.8-.7 1.8-1.2 2.9-1.2h53.2c1 0 1.9.3 2.6.8 1.4 1.1 2.1 2.8 2.1 5 0 2.1-.6 3.7-1.9 4.8-.8.6-1.7 1-2.9 1h-20v53.7c0 1.6-.5 2.9-1.7 3.8-1.2 1.1-2.9 1.6-4.9 1.6-2.8 0-4.7-.9-5.8-2.7-.5-.8-.7-1.7-.7-2.8V139zm78-13.1c7.1 0 13.3 1.9 18.7 5.5 5.4 3.7 9.4 9 12 15.7 1.7 4.6 2.6 9.7 2.6 15.3 0 9.9-2.7 18.2-7.9 24.9-6.2 7.8-14.6 11.6-25.4 11.6-11.3 0-20.1-4.3-26.2-12.9-4.6-6.4-7-14.4-7-23.6 0-7.1 1.4-13.3 4.2-18.9 4-8 10.1-13.3 18.4-15.9 3.1-1.2 6.6-1.7 10.6-1.7zm-.3 10.8c-5.6 0-10.2 2.2-13.7 6.8-3.7 4.7-5.5 11-5.5 18.7 0 6.7 1.4 12.3 4.3 16.8 3.6 5.6 8.6 8.5 15.1 8.5 6.2 0 11.2-2.7 14.7-7.9 3-4.6 4.6-10.3 4.6-17.3 0-7.9-2-14.3-5.8-18.9-3.6-4.5-8.2-6.7-13.7-6.7zm60 34.7V193c0 1.1-.3 2.1-.9 2.9-1.2 1.6-3 2.4-5.6 2.4-2.2 0-3.9-.6-5.2-1.9-.9-.9-1.3-2.1-1.3-3.4v-54.7c0-7.1 3.6-10.8 10.7-10.8h15.9c7.3 0 13.5 1.4 18.5 4.4 6.4 3.7 9.6 9.5 9.6 17 0 8-2.9 14-8.9 17.8-4.9 3.1-11.4 4.7-19.6 4.7h-13.2zm0-10.8h13.5c4.6 0 8.1-1 10.7-2.9 2.5-2 3.7-4.8 3.7-8.5 0-4.1-1.7-7.1-5.1-8.9-2.3-1.2-5.3-1.9-8.9-1.9h-11.9c-1.4 0-2.1.7-2.1 2.1l.1 20.1z" style="stroke:#0059b3;stroke-width:2.6773;stroke-miterlimit:10;fill:#0059b3"/></svg>