<svg version="1.1" id="レイヤー_1" xmlns="http://www.w3.org/2000/svg" x="0" y="0" viewBox="0 0 650 400" style="enable-background:new 0 0 650 400" xml:space="preserve"><style>.st0{stroke:#0059b3;stroke-width:3;stroke-miterlimit:10}.st0,.st1{fill:#0059b3}</style><path class="st0" d="M389.1 252.3c5.7 0 10.3 1.6 13.8 4.8 2 1.7 2.9 3.3 2.9 4.8 0 1-.4 1.8-1.1 2.6-.8.9-1.9 1.4-3.1 1.4-1 0-1.8-.3-2.4-1-.1-.1-.3-.4-.8-.9-2.3-3-5.4-4.5-9.2-4.5-3 0-5.7 1.1-7.9 3.1-3.2 3-4.8 7.3-4.8 13 0 4.2.9 7.6 2.8 10.5 2.3 3.6 5.7 5.4 9.9 5.4s7.7-1.8 10.7-5.5c.7-.8 1.6-1.3 2.7-1.3s2.1.4 3 1.1c.8.8 1.3 1.7 1.3 2.9s-.6 2.5-1.7 3.7c-3.9 4.2-9.1 6.4-15.9 6.4-6.8 0-12.3-2.3-16.3-7-3.6-4.1-5.3-9.5-5.3-16.1 0-7.1 2.1-12.9 6.3-17.2 3.9-4.2 8.9-6.2 15.1-6.2zm33.9 25.9v16.7c0 .7-.2 1.3-.6 1.8-.8 1-2 1.5-3.6 1.5-1.4 0-2.5-.4-3.3-1.2-.6-.6-.8-1.3-.8-2.2V256c0-.8.3-1.5.8-2.1.8-.8 1.9-1.2 3.3-1.2 1.7 0 2.9.5 3.6 1.7.3.5.5 1 .5 1.6v14.9h20.4V256c0-.7.2-1.3.6-1.8.8-1 1.9-1.5 3.5-1.5 1.4 0 2.5.4 3.3 1.2.6.6.8 1.3.8 2.1v39c0 .8-.3 1.6-.8 2.1-.8.8-1.9 1.2-3.3 1.2-1.7 0-2.9-.5-3.6-1.7-.3-.5-.5-1-.5-1.7v-16.7H423z"/><path class="st1" d="m411 186.4 75.7 43.7v87.4L411 361.2l-75.7-43.7v-87.4l75.7-43.7m0-22.7-95.3 55.1v110.1L411 384l95.3-55.1V218.8L411 163.7z"/><path class="st0" d="M217.2 252.3c5.7 0 10.3 1.6 13.8 4.8 2 1.7 2.9 3.3 2.9 4.8 0 1-.4 1.8-1.1 2.6-.8.9-1.9 1.4-3.1 1.4-1 0-1.8-.3-2.4-1-.1-.1-.3-.4-.8-.9-2.3-3-5.4-4.5-9.2-4.5-3 0-5.7 1.1-7.9 3.1-3.2 3-4.8 7.3-4.8 13 0 4.2.9 7.6 2.8 10.5 2.3 3.6 5.7 5.4 9.9 5.4s7.7-1.8 10.7-5.5c.7-.8 1.6-1.3 2.7-1.3s2.1.4 3 1.1c.8.8 1.3 1.7 1.3 2.9s-.6 2.5-1.7 3.7c-3.9 4.2-9.1 6.4-15.9 6.4-6.8 0-12.3-2.3-16.3-7-3.6-4.1-5.3-9.5-5.3-16.1 0-7.1 2.1-12.9 6.3-17.2 3.9-4.2 8.8-6.2 15.1-6.2zm33.9 25.9v16.7c0 .7-.2 1.3-.6 1.8-.8 1-2 1.5-3.6 1.5-1.4 0-2.5-.4-3.3-1.2-.6-.6-.8-1.3-.8-2.2V256c0-.8.3-1.5.8-2.1.8-.8 1.9-1.2 3.3-1.2 1.7 0 2.9.5 3.6 1.7.3.5.5 1 .5 1.6v14.9h20.4V256c0-.7.2-1.3.6-1.8.8-1 1.9-1.5 3.5-1.5 1.4 0 2.5.4 3.3 1.2.6.6.8 1.3.8 2.1v39c0 .8-.3 1.6-.8 2.1-.8.8-1.9 1.2-3.3 1.2-1.7 0-2.9-.5-3.6-1.7-.3-.5-.5-1-.5-1.7v-16.7h-20.3z"/><path class="st1" d="m239 186.4 75.7 43.7v87.4L239 361.2l-75.7-43.7v-87.4l75.7-43.7m0-22.7-95.3 55.1v110.1L239 384l95.3-55.1V218.8L239 163.7z"/><path class="st0" d="M303.1 104.7c5.7 0 10.3 1.6 13.8 4.8 2 1.7 2.9 3.3 2.9 4.8 0 1-.4 1.8-1.1 2.6-.8.9-1.9 1.4-3.1 1.4-1 0-1.8-.3-2.4-1-.1-.1-.3-.4-.8-.9-2.3-3-5.4-4.5-9.2-4.5-3 0-5.7 1.1-7.9 3.1-3.2 3-4.8 7.3-4.8 13 0 4.2.9 7.6 2.8 10.5 2.3 3.6 5.7 5.4 9.9 5.4s7.7-1.8 10.7-5.5c.7-.8 1.6-1.3 2.7-1.3s2.1.4 3 1.1 1.3 1.7 1.3 2.9-.6 2.5-1.7 3.7c-3.9 4.2-9.1 6.4-15.9 6.4s-12.3-2.3-16.3-7c-3.6-4.1-5.3-9.5-5.3-16.1 0-7.1 2.1-12.9 6.3-17.2 3.9-4.3 8.9-6.2 15.1-6.2zm33.9 25.8v16.7c0 .7-.2 1.3-.6 1.8-.8 1-2 1.5-3.6 1.5-1.4 0-2.5-.4-3.3-1.2-.6-.6-.8-1.3-.8-2.2v-38.8c0-.8.3-1.5.8-2.1.8-.8 1.9-1.2 3.3-1.2 1.7 0 2.9.5 3.6 1.7.3.5.5 1 .5 1.6v14.9h20.4v-14.8c0-.7.2-1.3.6-1.8.8-1 1.9-1.5 3.5-1.5 1.4 0 2.5.4 3.3 1.2.6.6.8 1.3.8 2.1v38.9c0 .8-.3 1.6-.8 2.1-.8.8-1.9 1.2-3.3 1.2-1.7 0-2.9-.5-3.6-1.7-.3-.5-.5-1-.5-1.7v-16.7H337z"/><path class="st1" d="m325 38.8 75.7 43.7v87.4L325 213.6l-75.7-43.7V82.5L325 38.8m0-22.8-95.3 55.1v110.1l95.3 55.1 95.3-55.1V71.1L325 16z"/></svg>