<svg version="1.1" id="レイヤー_1" xmlns="http://www.w3.org/2000/svg" x="0" y="0" viewBox="0 0 650 400" style="enable-background:new 0 0 650 400" xml:space="preserve"><style>.st0{fill:#0059b3}</style><path class="st0" d="M320.7 84.9c-5 0-9.1 4.1-9.1 9.1v135.6l-35.5-35.5c-1.8-1.8-4.1-2.6-6.4-2.6s-4.6.9-6.4 2.6c-3.6 3.5-3.5 9.2 0 12.8l50.9 50.9c1.8 1.8 4.1 2.7 6.4 2.7h.4c2.4 0 4.6-.9 6.2-2.5l50.9-50.9c3.5-3.5 3.5-9.2 0-12.8-1.8-1.8-4.1-2.6-6.4-2.6s-4.6.9-6.4 2.6l-35.5 35.5V94c0-5-4.1-9.1-9.1-9.1zm55.1 192.5H265.6c-4.9 0-8.8 4-8.8 8.8 0 4.9 4 8.8 8.8 8.8H376c4.8 0 8.7-3.9 8.6-8.8 0-4.9-4-8.8-8.8-8.8z"/><path class="st0" d="M320.8 38.7c43.1 0 83.6 16.8 114.1 47.3 30.5 30.5 47.3 71 47.3 114.1 0 43.1-16.8 83.6-47.3 114.1-30.5 30.5-71 47.3-114.1 47.3-43.1 0-83.6-16.8-114.1-47.3-30.5-30.5-47.3-71-47.3-114.1 0-43.1 16.8-83.6 47.3-114.1 30.5-30.6 71-47.3 114.1-47.3m0-20c-100.1 0-181.3 81.2-181.3 181.3s81.2 181.3 181.3 181.3S502.1 300.1 502.1 200 420.9 18.7 320.8 18.7z"/></svg>