<svg xmlns="http://www.w3.org/2000/svg" viewBox="0 0 650 400" style="enable-background:new 0 0 650 400" xml:space="preserve"><style>.st13{fill:#004ea2}.st14{fill:#ccdcec}</style><g id="製品-お問い合わせ"><path class="st13" d="M578.708 51.1c6.838 0 12.4 5.518 12.4 12.3v225.1c0 6.667-5.632 12.3-12.3 12.3h-343.7c-6.667 0-12.3-5.633-12.3-12.3V63.3c0-6.613 5.633-12.2 12.3-12.2h343.6m0-15h-343.6c-15 0-27.3 12.3-27.3 27.2v225.2c0 15 12.3 27.3 27.3 27.3h343.7c15 0 27.3-12.3 27.3-27.3V63.4c0-15-12.3-27.3-27.4-27.3z"/><path class="st14" d="M236.155 64.447h341.607v223.006H236.155z"/><path d="M475.108 318.4V369m44.5-50.6V369" style="fill:none;stroke:#004ea2;stroke-width:20;stroke-linecap:round;stroke-linejoin:round;stroke-miterlimit:10"/><path class="st13" d="M381.958 158.245V352H84.845V158.245h297.113m1.121-25H83.637c-13.073 0-23.792 10.72-23.792 23.705v196.259c0 13.072 10.72 23.791 23.792 23.791h299.53c13.072 0 23.791-10.72 23.791-23.792V157.037c0-13.073-10.72-23.792-23.879-23.792z"/><path d="M84.549 157.949h297.706v194.347H84.549z" style="fill:#fff"/><path class="st14" d="M95.887 169.287h275.029v171.67H95.887z"/></g></svg>