<svg xmlns="http://www.w3.org/2000/svg" viewBox="0 0 650 400" style="enable-background:new 0 0 650 400" xml:space="preserve"><path d="M493.1 112.4c0-.9-.2-1.8-.5-2.7-.1-.3-.4-.6-.6-.9-.2-.4-.4-.9-.8-1.2L426 35.1c-1.4-1.5-3.3-2.4-5.4-2.4H297.4c-12 0-21.7 9.8-21.7 21.7v36.2h-94.2c-12 0-21.7 9.8-21.7 21.7v232c0 12 9.8 21.7 21.7 21.7h174c12 0 21.7-9.8 21.7-21.7v-36.2h94.2c12 0 21.7-9.8 21.7-21.7v-174zm-130.5 232c0 4-3.3 7.2-7.2 7.2h-174c-4 0-7.2-3.3-7.2-7.2v-232c0-4 3.3-7.2 7.2-7.2h94.2v79.7c0 4 3.2 7.2 7.2 7.2h79.7v152.3zm0-166.7h-72.5v-72.5h4.2l68.2 68.3v4.2zm116 108.7c0 4-3.3 7.2-7.2 7.2h-94.2V170.4c0-1.9-.8-3.7-2-5l-.1-.1-72.5-72.5c-1.4-1.4-3.2-2.1-5.1-2.1h-7.3V54.4c0-4 3.3-7.2 7.2-7.2h101.5v79.7c0 4 3.2 7.2 7.2 7.2h72.5v152.3zm0-166.7h-65.3V47.2h4l61.2 68v4.5z" style="fill:#0059b3;stroke:#0059b3;stroke-width:3;stroke-miterlimit:10"/></svg>