<svg xmlns="http://www.w3.org/2000/svg" viewBox="0 0 650 400" style="enable-background:new 0 0 650 400" xml:space="preserve"><style>.st13{fill:#004ea2}.st18{stroke:#004ea2;stroke-miterlimit:10;stroke-width:15;fill:none}</style><g id="PR-お問い合わせ"><path class="st13" d="M566.652 69.854c6.838 0 12.4 5.517 12.4 12.3v225.1c0 6.667-5.633 12.3-12.3 12.3h-343.7c-6.667 0-12.3-5.633-12.3-12.3v-225.2c0-6.613 5.633-12.2 12.3-12.2h343.6m0-15h-343.6c-15 0-27.3 12.3-27.3 27.2v225.2c0 15 12.3 27.3 27.3 27.3h343.7c15 0 27.3-12.3 27.3-27.3v-225.1c0-15-12.3-27.3-27.4-27.3z"/><path style="fill:#ccdcec" d="M224.099 83.2h341.607v223.006H224.099z"/><circle class="st18" cx="389.075" cy="157.949" r="48.608"/><path class="st18" d="M314.66 280.972c0-41.098 33.317-74.415 74.415-74.415s74.415 33.317 74.415 74.415"/><path class="st13" d="M248.736 205.887H59.477c-8.262 0-15.037 6.775-15.037 14.982v124.043c0 8.262 6.775 15.037 15.037 15.037h189.314c8.262 0 15.037-6.775 15.037-15.037V220.924c0-8.262-6.775-15.037-15.092-15.037z"/><path d="M98.118 250.945h24.412c14.93 0 26.953 5.402 26.953 22.131 0 16.2-12.358 23.34-26.953 23.34h-8.838v23.339H98.118v-68.81zm23.508 33.11c8.533 0 12.588-3.825 12.588-10.979 0-7.183-4.389-9.77-12.588-9.77h-7.934v20.749h7.934zm39.298-33.11h24.465c14.576 0 26.57 5.068 26.57 21.439 0 15.813-11.994 22.617-26.57 22.617h-8.862v24.754h-15.603v-68.81zm23.198 31.696c8.18 0 12.569-3.52 12.569-10.257 0-6.796-4.39-9.078-12.57-9.078h-7.594v19.335h7.595zm9.183-1.723 21.956 38.837h-17.42l-15.314-28.858 10.778-9.979z" style="fill:#fff"/></g></svg>