<svg xmlns="http://www.w3.org/2000/svg" viewBox="0 0 650 400" style="enable-background:new 0 0 650 400" xml:space="preserve"><style>.st16{stroke:#004ea2;stroke-miterlimit:10;fill:#ccdcec;stroke-width:15}</style><g id="HR-お問い合わせ"><circle class="st16" cx="419.445" cy="146.82" r="56.537"/><path class="st16" d="M332.892 289.91c0-47.802 38.751-86.553 86.553-86.553s86.552 38.75 86.552 86.552"/><circle class="st16" cx="520.852" cy="238.569" r="45.472"/><path class="st16" d="M451.238 353.656c0-38.447 31.167-69.615 69.614-69.615s69.614 31.168 69.614 69.615"/><circle class="st16" cx="318.038" cy="238.569" r="45.472"/><path class="st16" d="M248.423 353.656c0-38.447 31.168-69.615 69.615-69.615s69.614 31.168 69.614 69.615"/><path d="M248.736 40.642H59.477c-8.262 0-15.037 6.775-15.037 14.982v124.042c0 8.263 6.775 15.038 15.037 15.038h189.314c8.262 0 15.037-6.775 15.037-15.038V55.68c0-8.262-6.775-15.037-15.092-15.037z" style="fill:#004ea2"/><path d="M96.985 85.7h15.603v26.493h18.665V85.7h15.603v68.81h-15.604v-28.712h-18.664v28.713H96.985V85.7zm63.939 0h24.465c14.576 0 26.57 5.068 26.57 21.439 0 15.812-11.994 22.617-26.57 22.617h-8.862v24.754h-15.603V85.7zm23.198 31.696c8.18 0 12.569-3.52 12.569-10.257 0-6.796-4.39-9.078-12.57-9.078h-7.594v19.335h7.595zm9.183-1.723 21.956 38.837h-17.42l-15.314-28.858 10.778-9.979z" style="fill:#fff"/></g></svg>