<svg xmlns="http://www.w3.org/2000/svg" viewBox="0 0 131.25 35" style="enable-background:new 0 0 131.25 35" xml:space="preserve"><ellipse cx="123.826" cy="7.073" rx="2.199" ry="2.233" style="fill:#ea6da4"/><ellipse cx="127.66" cy="13.185" rx="2.199" ry="2.233" style="fill:#e7372f"/><ellipse cx="128.592" cy="20.369" rx="2.199" ry="2.233" style="fill:#7f1083"/><ellipse cx="126.446" cy="27.28" rx="2.199" ry="2.233" style="fill:#1d2183"/><ellipse cx="117.807" cy="3.179" rx="2.199" ry="2.233" style="fill:#f5aa00"/><ellipse cx="110.731" cy="2.233" rx="2.199" ry="2.233" style="fill:#aacc03"/><ellipse cx="103.925" cy="4.412" rx="2.199" ry="2.233" style="fill:#80cce3"/><path d="M8.17 13.928v-.3H12v.3h-.407c-.426 0-.753.181-.981.542-.112.168-.167.556-.167 1.167v4.456c0 1.102-.108 1.957-.324 2.565-.215.608-.639 1.129-1.269 1.564-.631.435-1.488.653-2.573.653-1.181 0-2.077-.208-2.689-.624a3.366 3.366 0 0 1-1.301-1.677c-.171-.48-.255-1.383-.255-2.706v-4.295c0-.675-.092-1.118-.276-1.329-.184-.211-.48-.316-.89-.316H.461v-.3h4.676v.3h-.415c-.447 0-.766.143-.958.429-.133.194-.199.599-.199 1.215v4.788c0 .427.038.916.115 1.466.077.551.217.981.419 1.288.202.308.493.562.874.762.381.199.847.3 1.4.3.708 0 1.341-.157 1.899-.47.559-.313.94-.714 1.145-1.204.205-.489.307-1.316.307-2.483V15.57c0-.686-.074-1.115-.223-1.288-.207-.238-.516-.357-.925-.357H8.17v.003zm13.067-.551v3.8h-.295c-.095-.73-.268-1.31-.514-1.742a2.7 2.7 0 0 0-1.058-1.029 2.889 2.889 0 0 0-1.421-.381c-.554 0-1.011.171-1.372.514-.362.343-.542.733-.542 1.17 0 .335.115.64.343.916.33.405 1.114.946 2.354 1.62 1.011.551 1.701.974 2.07 1.267.37.295.654.641.854 1.041s.299.819.299 1.256c0 .832-.318 1.549-.953 2.151-.636.603-1.454.904-2.454.904-.314 0-.609-.024-.886-.073-.164-.027-.506-.126-1.025-.296-.519-.171-.848-.255-.986-.255a.414.414 0 0 0-.315.122c-.077.081-.135.248-.171.502h-.295v-3.767h.295c.138.788.325 1.379.559 1.77.234.392.592.717 1.073.976a3.288 3.288 0 0 0 1.584.389c.665 0 1.19-.178 1.576-.535.386-.357.578-.778.578-1.264 0-.27-.073-.543-.22-.819-.146-.276-.374-.532-.682-.77-.207-.162-.774-.506-1.7-1.033-.925-.527-1.584-.947-1.975-1.26a3.38 3.38 0 0 1-.89-1.037 2.604 2.604 0 0 1-.304-1.248c0-.788.297-1.468.894-2.037.596-.569 1.354-.855 2.274-.855.575 0 1.183.143 1.827.429.297.136.508.203.631.203a.474.474 0 0 0 .339-.125c.087-.084.158-.252.212-.506h.294v.002zm13.005 0 .248 3.735h-.248c-.33-1.118-.8-1.923-1.413-2.414-.611-.492-1.346-.737-2.203-.737-.718 0-1.367.185-1.947.555-.58.37-1.037.96-1.369 1.77-.332.81-.499 1.818-.499 3.022 0 .995.157 1.855.471 2.585s.786 1.288 1.416 1.678c.631.388 1.35.583 2.159.583.702 0 1.322-.152 1.86-.457.537-.305 1.128-.911 1.771-1.819l.248.162c-.542.978-1.176 1.693-1.899 2.147-.723.454-1.582.681-2.578.681-1.793 0-3.181-.675-4.165-2.025-.734-1.005-1.101-2.188-1.101-3.549 0-1.097.242-2.105.726-3.022.484-.918 1.15-1.63 1.999-2.135a5.34 5.34 0 0 1 2.781-.758c.782 0 1.553.194 2.314.583.223.119.383.178.478.178a.526.526 0 0 0 .375-.154c.138-.146.237-.348.296-.608h.28v-.001zm8.606 0c1.405 0 2.622.541 3.651 1.624 1.03 1.083 1.544 2.435 1.544 4.055 0 1.669-.519 3.055-1.556 4.157-1.037 1.102-2.293 1.653-3.767 1.653-1.49 0-2.741-.537-3.754-1.612-1.014-1.075-1.52-2.466-1.52-4.172 0-1.745.585-3.168 1.756-4.27 1.016-.957 2.231-1.435 3.646-1.435zm-.151.591c-.968 0-1.745.365-2.33 1.094-.729.907-1.093 2.236-1.093 3.986 0 1.793.378 3.173 1.133 4.141.58.735 1.346 1.102 2.299 1.102 1.016 0 1.855-.402 2.517-1.207.662-.805.994-2.074.994-3.809 0-1.88-.365-3.281-1.093-4.205-.587-.734-1.395-1.102-2.427-1.102zm23.23-.591.279 3.467h-.279c-.283-.864-.646-1.515-1.093-1.952-.644-.632-1.471-.947-2.482-.947-1.378 0-2.426.554-3.144 1.661-.601.935-.902 2.048-.902 3.338 0 1.048.199 2.004.598 2.868.399.864.922 1.498 1.568 1.9.646.402 1.31.604 1.991.604.399 0 .785-.051 1.157-.154a4.56 4.56 0 0 0 1.078-.454v-3.176c0-.551-.041-.911-.124-1.082a.835.835 0 0 0-.383-.389c-.173-.089-.478-.134-.914-.134v-.307h4.189v.308h-.199c-.415 0-.7.141-.854.422-.107.199-.16.594-.16 1.183v3.362a8.005 8.005 0 0 1-1.812.737 7.805 7.805 0 0 1-1.987.234c-2.091 0-3.679-.681-4.764-2.042-.814-1.021-1.221-2.198-1.221-3.532 0-.967.229-1.894.687-2.779.542-1.053 1.288-1.864 2.234-2.431.792-.47 1.728-.705 2.809-.705.394 0 .751.032 1.073.097.322.065.778.208 1.369.429.297.114.497.171.598.171.101 0 .187-.047.26-.142.073-.094.115-.28.132-.555h.296zm14.385 11.238h-2.888l-3.663-5.136c-.271.011-.492.017-.662.017a5.91 5.91 0 0 1-.471-.016v3.193c0 .691.074 1.121.224 1.288.202.238.506.357.91.357h.422v.3h-4.636v-.3h.407c.457 0 .785-.151.981-.454.112-.167.168-.564.168-1.191v-7.097c0-.691-.074-1.121-.224-1.288-.207-.238-.516-.357-.925-.357h-.407v-.3h3.942c1.149 0 1.996.085 2.542.255a2.913 2.913 0 0 1 1.388.94c.381.457.57 1.001.57 1.632 0 .675-.217 1.261-.651 1.758s-1.105.848-2.014 1.053l2.234 3.152c.511.724.949 1.204 1.316 1.442.367.238.846.388 1.436.454v.298zm-7.685-5.648c.101 0 .189.001.263.004.074.003.136.004.184.004 1.032 0 1.81-.227 2.334-.681.524-.454.786-1.031.786-1.734 0-.686-.212-1.244-.634-1.673-.423-.429-.983-.644-1.679-.644-.309 0-.726.052-1.253.154l-.001 4.57zm15.087-5.59c1.405 0 2.622.541 3.651 1.624s1.544 2.435 1.544 4.055c0 1.669-.519 3.055-1.556 4.157-1.037 1.102-2.293 1.653-3.767 1.653-1.49 0-2.741-.537-3.754-1.612-1.014-1.075-1.52-2.466-1.52-4.172 0-1.745.585-3.168 1.756-4.27 1.015-.957 2.23-1.435 3.646-1.435zm-.152.591c-.968 0-1.745.365-2.33 1.094-.729.907-1.093 2.236-1.093 3.986 0 1.793.378 3.173 1.133 4.141.58.735 1.346 1.102 2.299 1.102 1.016 0 1.855-.402 2.517-1.207.662-.805.994-2.074.994-3.809 0-1.88-.365-3.281-1.093-4.205-.586-.734-1.394-1.102-2.427-1.102zm15.342-.04v-.3h3.83v.3h-.407c-.426 0-.753.181-.981.542-.112.168-.167.556-.167 1.167v4.456c0 1.102-.108 1.957-.324 2.565-.215.608-.639 1.129-1.269 1.564-.631.435-1.488.653-2.573.653-1.181 0-2.077-.208-2.689-.624a3.366 3.366 0 0 1-1.301-1.677c-.171-.48-.255-1.383-.255-2.706v-4.295c0-.675-.092-1.118-.276-1.329-.184-.211-.48-.316-.89-.316h-.407v-.3h4.676v.3h-.415c-.447 0-.766.143-.958.429-.133.194-.199.599-.199 1.215v4.788c0 .427.038.916.115 1.466.077.551.217.981.419 1.288.202.308.493.562.874.762.381.199.847.3 1.4.3.708 0 1.341-.157 1.899-.47.559-.313.94-.714 1.145-1.204.205-.489.307-1.316.307-2.483V15.57c0-.686-.074-1.115-.223-1.288-.207-.238-.516-.357-.925-.357h-.408v.003zm8.927 5.542v3.201c0 .691.074 1.121.223 1.288.202.238.508.357.918.357h.415v.3h-4.636v-.3h.407c.457 0 .785-.151.981-.454.107-.167.16-.564.16-1.191v-7.097c0-.691-.072-1.121-.215-1.288-.207-.238-.516-.357-.925-.357h-.407v-.3h3.966c.968 0 1.731.101 2.29.304.559.202 1.03.544 1.413 1.025.383.48.575 1.051.575 1.71 0 .897-.291 1.626-.874 2.188-.583.562-1.406.843-2.469.843a6.65 6.65 0 0 1-.846-.057c-.306-.04-.631-.096-.976-.172zm0-.462c.282.054.532.094.75.122.218.027.404.04.559.04.553 0 1.03-.217 1.433-.653.401-.435.603-.998.603-1.689a3.06 3.06 0 0 0-.288-1.325 2.009 2.009 0 0 0-.814-.916 2.347 2.347 0 0 0-1.197-.304c-.271 0-.619.052-1.045.154l-.001 4.571zM4.258 28.913l.101 1.534h-.101c-.136-.459-.329-.79-.58-.992s-.553-.303-.904-.303c-.295 0-.562.076-.799.227-.238.152-.425.394-.562.727s-.205.747-.205 1.241c0 .408.065.763.193 1.062s.323.529.582.689.555.24.887.24c.289 0 .543-.063.764-.188.22-.125.463-.374.728-.747l.101.066c-.223.401-.483.695-.78.882-.297.186-.65.28-1.058.28-.737 0-1.307-.277-1.711-.832-.303-.413-.453-.899-.453-1.458 0-.45.1-.864.298-1.241s.472-.669.821-.876c.348-.207.73-.311 1.142-.311.321 0 .638.08.95.24a.504.504 0 0 0 .197.073c.059 0 .11-.021.154-.063a.53.53 0 0 0 .122-.249l.113-.001zm1.527-.116v2.23c.242-.27.435-.444.576-.521a.9.9 0 0 1 .426-.115c.171 0 .317.048.439.143.122.095.213.245.272.45.041.142.062.401.062.778v1.078c0 .193.015.325.045.396a.267.267 0 0 0 .111.127c.052.031.149.046.289.046v.12H6.532v-.12h.069c.14 0 .237-.022.292-.065a.348.348 0 0 0 .115-.192c.007-.035.01-.14.01-.313v-1.078c0-.332-.017-.551-.051-.656-.034-.104-.088-.182-.163-.234s-.164-.079-.269-.079a.742.742 0 0 0-.334.087c-.115.058-.255.174-.416.35v1.61c0 .209.011.339.034.389a.289.289 0 0 0 .128.129c.062.034.17.052.323.052v.12H4.782v-.12a.662.662 0 0 0 .315-.063.232.232 0 0 0 .105-.127c.026-.062.039-.188.039-.38V30.08c0-.348-.008-.562-.024-.642-.017-.08-.042-.134-.075-.163a.203.203 0 0 0-.136-.043.815.815 0 0 0-.223.053l-.045-.117.898-.373h.149zM9.96 33.09c-.308.241-.501.381-.58.419a.88.88 0 0 1-.377.083.671.671 0 0 1-.513-.216c-.135-.144-.201-.333-.201-.569 0-.149.032-.277.098-.387.089-.15.245-.293.467-.426.222-.133.59-.295 1.107-.486v-.12c0-.304-.047-.513-.143-.625-.095-.113-.234-.17-.415-.17a.465.465 0 0 0-.328.113.343.343 0 0 0-.125.26l.007.193c0 .102-.025.181-.077.236s-.119.083-.202.083a.256.256 0 0 1-.199-.087.339.339 0 0 1-.077-.236c0-.191.096-.367.289-.526.192-.16.462-.24.809-.24.267 0 .485.045.655.136a.626.626 0 0 1 .285.323c.039.095.059.29.059.585v1.035c0 .29.005.468.017.534.011.066.029.109.054.131s.054.033.087.033a.173.173 0 0 0 .092-.024c.045-.029.135-.11.265-.243v.186c-.245.332-.478.499-.702.499a.315.315 0 0 1-.255-.113c-.062-.071-.095-.199-.097-.381zm0-.217v-1.162c-.33.133-.543.227-.639.283a1.108 1.108 0 0 0-.37.306.601.601 0 0 0-.111.35c0 .16.047.292.141.398a.426.426 0 0 0 .325.158c.164 0 .383-.111.654-.333zm2.31-4.076v4.043c0 .191.014.318.041.38.027.062.069.109.126.142s.163.048.318.048v.12h-1.471v-.12c.137 0 .232-.014.282-.043a.295.295 0 0 0 .118-.143c.028-.066.043-.194.043-.382v-2.768c0-.344-.008-.555-.023-.634-.016-.079-.04-.132-.073-.161a.192.192 0 0 0-.129-.043.61.61 0 0 0-.216.053l-.056-.117.895-.373.145-.002zm1.865 0v4.043c0 .191.014.318.041.38.027.062.069.109.126.142s.163.048.318.048v.12h-1.471v-.12c.137 0 .232-.014.282-.043s.089-.077.118-.143c.028-.066.043-.194.043-.382v-2.768c0-.344-.008-.555-.023-.634-.016-.079-.04-.132-.073-.161a.192.192 0 0 0-.129-.043.61.61 0 0 0-.216.053l-.056-.117.895-.373.145-.002zm1.338 2.832c-.003.452.106.807.325 1.065.219.257.475.386.77.386a.832.832 0 0 0 .513-.164c.145-.11.267-.298.366-.564l.101.066a1.599 1.599 0 0 1-.4.831c-.22.249-.497.374-.829.374-.36 0-.669-.143-.925-.428-.257-.285-.385-.668-.385-1.149 0-.521.131-.928.394-1.219.263-.292.594-.437.991-.437.337 0 .613.113.829.338.216.226.325.527.325.904l-2.075-.003zm0-.193h1.39a1.29 1.29 0 0 0-.069-.412.663.663 0 0 0-.244-.293.607.607 0 0 0-.339-.106.674.674 0 0 0-.487.214c-.144.143-.227.341-.251.597zm3.349-.4c.352-.43.687-.646 1.006-.646.164 0 .304.042.422.125.118.083.212.22.282.411.048.133.073.338.073.612v1.301c0 .193.015.325.045.393a.27.27 0 0 0 .116.129c.053.031.152.046.297.046v.12h-1.484v-.12h.062c.14 0 .238-.022.293-.065a.338.338 0 0 0 .116-.192 1.94 1.94 0 0 0 .013-.313V31.59c0-.277-.035-.478-.107-.604-.071-.125-.191-.188-.359-.188-.26 0-.519.144-.777.432v1.607c0 .206.012.334.036.382a.315.315 0 0 0 .126.142c.053.03.163.045.326.045v.12h-1.484v-.12h.066c.153 0 .256-.039.31-.118s.08-.229.08-.451v-1.132c0-.366-.008-.589-.024-.669-.017-.08-.041-.134-.075-.163a.203.203 0 0 0-.136-.043.63.63 0 0 0-.22.05l-.049-.12.904-.373h.141l.001.649zm3.284 1.381a.985.985 0 0 1-.422-.381 1.032 1.032 0 0 1-.148-.541c0-.302.112-.562.336-.778.224-.218.511-.326.861-.326.286 0 .534.071.744.213h.636c.094 0 .149.003.164.008a.056.056 0 0 1 .032.028c.013.02.019.055.019.107a.28.28 0 0 1-.017.12.072.072 0 0 1-.034.026.762.762 0 0 1-.165.01h-.39c.122.16.184.364.184.612a.972.972 0 0 1-.321.729c-.214.202-.501.303-.862.303-.149 0-.3-.022-.456-.066a.894.894 0 0 0-.195.221.356.356 0 0 0-.051.161c0 .038.017.074.054.11.036.036.107.061.212.077.061.009.214.017.459.024.45.011.742.026.875.046a.814.814 0 0 1 .486.229.628.628 0 0 1 .182.459c0 .251-.115.486-.347.706-.341.324-.785.485-1.334.485-.422 0-.778-.096-1.068-.29-.164-.111-.246-.227-.246-.346 0-.053.012-.107.036-.16a1.88 1.88 0 0 1 .229-.343c.015-.02.127-.14.334-.36a.992.992 0 0 1-.241-.185.279.279 0 0 1-.07-.185.55.55 0 0 1 .094-.273c.061-.102.205-.249.43-.44zm-.033 1.112a1.71 1.71 0 0 0-.233.316.583.583 0 0 0-.079.27c0 .106.063.199.19.279.219.137.534.206.947.206.394 0 .683-.07.87-.211.187-.141.28-.291.28-.45 0-.115-.056-.198-.167-.246-.114-.049-.339-.078-.675-.087-.491-.014-.868-.04-1.133-.077zm.604-2.979a.511.511 0 0 0-.407.197c-.109.131-.164.332-.164.603 0 .351.074.622.223.815.114.146.258.22.432.22a.509.509 0 0 0 .409-.19c.107-.126.16-.325.16-.596 0-.353-.075-.629-.226-.828a.512.512 0 0 0-.427-.221zm2.487 1.079c-.003.452.106.807.325 1.065.219.257.475.386.77.386a.832.832 0 0 0 .513-.164c.145-.11.267-.298.366-.564l.101.066a1.599 1.599 0 0 1-.4.831c-.22.249-.497.374-.829.374-.36 0-.669-.143-.925-.428-.257-.285-.385-.668-.385-1.149 0-.521.131-.928.394-1.219.263-.292.594-.437.991-.437.337 0 .613.113.829.338.216.226.325.527.325.904l-2.075-.003zm0-.193h1.39a1.29 1.29 0 0 0-.069-.412.663.663 0 0 0-.244-.293.607.607 0 0 0-.339-.106.674.674 0 0 0-.487.214c-.144.143-.227.341-.251.597zm7.827-2.42.049 1.058h-.124a1.327 1.327 0 0 0-.098-.4c-.067-.129-.157-.223-.27-.284s-.261-.092-.444-.092h-.626v3.447c0 .277.03.45.088.519.083.094.211.14.383.14h.154v.123h-1.884v-.123h.157c.188 0 .321-.058.4-.173.048-.071.073-.234.073-.486v-3.447h-.534c-.207 0-.355.016-.443.046a.607.607 0 0 0-.292.243c-.08.12-.129.282-.144.486h-.126l.052-1.058 3.629.001zm1.088 1.374c.455 0 .82.175 1.094.526.234.299.351.643.351 1.031 0 .273-.065.549-.193.828-.129.28-.306.491-.533.632a1.394 1.394 0 0 1-.756.213 1.27 1.27 0 0 1-1.079-.548 1.717 1.717 0 0 1-.338-1.038c0-.279.068-.557.205-.834a1.41 1.41 0 0 1 .54-.612c.224-.131.46-.198.709-.198zm-.102.217a.675.675 0 0 0-.349.105c-.117.07-.212.192-.283.367s-.108.401-.108.676c0 .443.087.826.261 1.148.174.322.402.483.687.483a.637.637 0 0 0 .525-.266c.137-.178.206-.483.206-.915 0-.541-.115-.967-.344-1.278-.156-.214-.354-.32-.595-.32zm4.111 2.579c-.146.155-.29.267-.429.334-.14.067-.29.101-.452.101-.328 0-.614-.139-.859-.417s-.367-.636-.367-1.073c0-.436.136-.837.407-1.2.271-.363.619-.544 1.045-.544.264 0 .483.086.655.256v-.562c0-.348-.008-.562-.024-.642s-.042-.134-.077-.163a.199.199 0 0 0-.131-.043.692.692 0 0 0-.226.053l-.043-.117.895-.373h.147v3.524c0 .357.008.576.024.653.017.079.043.134.079.165a.187.187 0 0 0 .126.046.68.68 0 0 0 .236-.057l.036.117-.891.375h-.15l-.001-.433zm0-.234v-1.57a1.064 1.064 0 0 0-.118-.413.685.685 0 0 0-.578-.376c-.192 0-.364.087-.514.263-.199.231-.298.568-.298 1.012 0 .448.096.792.289 1.03.192.238.407.358.642.358.198 0 .39-.102.577-.304zm2.936.138c-.308.241-.501.381-.58.419a.88.88 0 0 1-.377.083.671.671 0 0 1-.513-.216c-.135-.144-.201-.333-.201-.569 0-.149.032-.277.098-.387.089-.15.245-.293.467-.426s.59-.295 1.107-.486v-.12c0-.304-.047-.513-.143-.625-.095-.113-.234-.17-.415-.17a.465.465 0 0 0-.328.113.343.343 0 0 0-.125.26l.007.193c0 .102-.025.181-.077.236a.265.265 0 0 1-.202.083.256.256 0 0 1-.199-.087.339.339 0 0 1-.077-.236c0-.191.096-.367.289-.526.192-.16.462-.24.809-.24.267 0 .485.045.655.136a.626.626 0 0 1 .285.323c.039.095.059.29.059.585v1.035c0 .29.005.468.017.534.011.066.029.109.054.131a.128.128 0 0 0 .087.033.173.173 0 0 0 .092-.024c.045-.029.135-.11.265-.243v.186c-.245.332-.478.499-.702.499a.315.315 0 0 1-.255-.113c-.062-.071-.095-.199-.097-.381zm0-.217v-1.162c-.33.133-.543.227-.639.283a1.108 1.108 0 0 0-.37.306.601.601 0 0 0-.111.35c0 .16.047.292.141.398a.426.426 0 0 0 .325.158c.164 0 .383-.111.654-.333zm1.107-2.393h1.4v.123h-.069c-.098 0-.172.022-.221.065a.205.205 0 0 0-.073.161c0 .087.036.206.108.36l.731 1.538.672-1.684a.69.69 0 0 0 .056-.269.151.151 0 0 0-.023-.09.173.173 0 0 0-.082-.058.594.594 0 0 0-.197-.022v-.124h.977v.123a.463.463 0 0 0-.187.053.533.533 0 0 0-.144.15c-.02.031-.057.116-.112.256l-1.222 3.041c-.118.296-.273.518-.464.669-.191.153-.375.228-.552.228a.458.458 0 0 1-.318-.113.341.341 0 0 1-.124-.259c0-.094.03-.168.09-.225a.346.346 0 0 1 .248-.085c.073 0 .171.024.295.073.087.033.143.05.164.05.066 0 .137-.034.215-.103.078-.069.156-.202.234-.4l.213-.529-1.079-2.3a1.816 1.816 0 0 0-.157-.256.795.795 0 0 0-.135-.157.728.728 0 0 0-.242-.093v-.123h-.002zm6.378.24v2.003c0 .284.031.464.092.539.08.098.189.147.325.147h.272v.12h-1.793v-.12h.135a.456.456 0 0 0 .24-.066.346.346 0 0 0 .149-.179c.027-.075.041-.221.041-.439v-2.003h-.583v-.242h.583v-.199c0-.304.048-.561.144-.771.096-.211.243-.381.441-.511.198-.129.42-.195.667-.195.229 0 .44.075.632.227.127.1.19.212.19.336 0 .066-.028.129-.085.188s-.118.088-.184.088c-.05 0-.103-.018-.159-.055s-.124-.115-.205-.236a.842.842 0 0 0-.223-.245.418.418 0 0 0-.226-.063.403.403 0 0 0-.255.081.453.453 0 0 0-.15.253c-.031.115-.045.408-.045.883v.22h.773v.24h-.776zm2.531-.33c.455 0 .82.175 1.094.526.234.299.351.643.351 1.031 0 .273-.065.549-.193.828-.129.28-.306.491-.533.632a1.394 1.394 0 0 1-.756.213 1.27 1.27 0 0 1-1.079-.548 1.717 1.717 0 0 1-.338-1.038c0-.279.068-.557.205-.834a1.41 1.41 0 0 1 .54-.612c.223-.131.459-.198.709-.198zm-.102.217a.675.675 0 0 0-.349.105c-.117.07-.212.192-.283.367a1.798 1.798 0 0 0-.108.676c0 .443.087.826.261 1.148s.402.483.687.483a.637.637 0 0 0 .525-.266c.137-.178.206-.483.206-.915 0-.541-.115-.967-.344-1.278-.158-.214-.355-.32-.595-.32zm2.867-.217v.686c.251-.457.509-.686.773-.686.12 0 .22.037.298.111.079.074.118.16.118.258 0 .087-.028.16-.085.22a.273.273 0 0 1-.203.09c-.077 0-.163-.038-.257-.115-.095-.077-.165-.115-.212-.115-.039 0-.082.023-.128.066a1.59 1.59 0 0 0-.304.45v1.461c0 .169.021.297.062.382.028.06.079.11.15.15.072.04.176.06.311.06v.12h-1.537v-.12c.153 0 .267-.024.341-.073a.292.292 0 0 0 .115-.17c.011-.038.017-.145.017-.323v-1.181c0-.355-.007-.566-.021-.633a.246.246 0 0 0-.079-.148.22.22 0 0 0-.143-.046.646.646 0 0 0-.229.05l-.032-.12.908-.373.137-.001zm4.736 2.7c-.308.241-.501.381-.58.419a.88.88 0 0 1-.377.083.671.671 0 0 1-.513-.216c-.135-.144-.201-.333-.201-.569 0-.149.032-.277.098-.387.089-.15.245-.293.467-.426s.59-.295 1.107-.486v-.12c0-.304-.047-.513-.143-.625-.095-.113-.234-.17-.415-.17a.465.465 0 0 0-.328.113.343.343 0 0 0-.125.26l.007.193c0 .102-.025.181-.077.236a.265.265 0 0 1-.202.083.256.256 0 0 1-.199-.087.339.339 0 0 1-.077-.236c0-.191.096-.367.289-.526.192-.16.462-.24.809-.24.267 0 .485.045.655.136a.626.626 0 0 1 .285.323c.039.095.059.29.059.585v1.035c0 .29.005.468.017.534.011.066.029.109.054.131a.128.128 0 0 0 .087.033.173.173 0 0 0 .092-.024c.045-.029.135-.11.265-.243v.186c-.245.332-.478.499-.702.499a.315.315 0 0 1-.255-.113c-.062-.071-.094-.199-.097-.381zm0-.217v-1.162c-.33.133-.543.227-.639.283a1.108 1.108 0 0 0-.37.306.601.601 0 0 0-.111.35c0 .16.047.292.141.398a.426.426 0 0 0 .325.158c.165 0 .383-.111.654-.333zm2.154-1.837c.352-.43.687-.646 1.006-.646.164 0 .304.042.422.125s.212.22.282.411c.048.133.073.338.073.612v1.301c0 .193.015.325.045.393a.27.27 0 0 0 .116.129c.053.031.152.046.297.046v.12h-1.484v-.12h.063c.14 0 .238-.022.293-.065a.338.338 0 0 0 .116-.192 1.94 1.94 0 0 0 .013-.313V31.59c0-.277-.035-.478-.107-.604-.071-.125-.191-.188-.359-.188-.26 0-.519.144-.777.432v1.607c0 .206.012.334.036.382a.315.315 0 0 0 .126.142c.053.03.163.045.326.045v.12h-1.484v-.12h.066c.153 0 .256-.039.31-.118.053-.079.08-.229.08-.451v-1.132c0-.366-.008-.589-.024-.669-.017-.08-.041-.134-.075-.163a.203.203 0 0 0-.136-.043.63.63 0 0 0-.22.05l-.049-.12.904-.373h.141v.649zm5.351-1.774v1.784h.977c.254 0 .422-.038.508-.117.114-.101.177-.282.19-.539h.122v1.571h-.122c-.031-.22-.061-.36-.092-.422a.41.41 0 0 0-.193-.183c-.09-.045-.227-.066-.413-.066h-.977v1.487c0 .199.009.321.026.365.017.043.048.078.092.103s.127.038.249.038h.754c.251 0 .434-.017.548-.053a.812.812 0 0 0 .328-.21c.136-.137.275-.345.416-.622h.131l-.383 1.132h-3.425v-.123h.157a.602.602 0 0 0 .298-.077.28.28 0 0 0 .143-.16c.025-.071.038-.216.038-.436v-2.931c0-.286-.029-.463-.085-.529-.079-.088-.21-.133-.394-.133h-.157v-.123h3.425l.049.988h-.129c-.045-.237-.097-.401-.152-.489a.52.52 0 0 0-.248-.203c-.087-.033-.241-.05-.462-.05l-1.219-.002zm2.786 1.218h1.413v.123c-.09 0-.152.016-.188.046a.154.154 0 0 0-.054.123c0 .053.038.136.115.246l.108.166.213.346.246-.346c.157-.22.236-.358.236-.416a.149.149 0 0 0-.056-.118c-.038-.032-.097-.048-.18-.048v-.122h1.016v.123a.544.544 0 0 0-.279.09c-.107.075-.254.24-.439.492l-.409.555.747 1.092c.184.269.315.43.394.485.079.054.18.085.304.092v.12h-1.416v-.12a.355.355 0 0 0 .229-.066.148.148 0 0 0 .062-.123c0-.051-.07-.179-.21-.386l-.439-.653-.482.652c-.149.202-.223.322-.223.36 0 .053.024.101.073.145a.356.356 0 0 0 .221.072v.12h-.98v-.12a.425.425 0 0 0 .206-.083c.083-.064.223-.228.42-.492l.63-.848-.57-.839c-.162-.24-.287-.39-.375-.45a.57.57 0 0 0-.332-.092l-.001-.126zm6.027 1.891c-.08.401-.24.71-.475.927-.236.216-.497.325-.784.325-.341 0-.638-.145-.891-.436-.254-.29-.38-.683-.38-1.178 0-.479.14-.869.421-1.169a1.34 1.34 0 0 1 1.011-.45c.295 0 .537.08.728.238.19.158.285.324.285.494a.274.274 0 0 1-.08.205.31.31 0 0 1-.225.079c-.129 0-.226-.042-.291-.127-.038-.046-.062-.136-.073-.266a.436.436 0 0 0-.133-.299.473.473 0 0 0-.318-.1.644.644 0 0 0-.527.246c-.178.218-.266.505-.266.862 0 .364.088.685.264.963.176.278.414.418.713.418a.848.848 0 0 0 .576-.223c.12-.102.237-.287.351-.555l.094.046zm1.465-1.981v2.449c0 .191.013.318.041.381a.285.285 0 0 0 .122.142c.053.031.151.046.293.046v.12h-1.458v-.12c.146 0 .245-.014.295-.043s.09-.077.12-.143.045-.194.045-.382v-1.175c0-.331-.01-.544-.03-.642-.015-.071-.039-.121-.072-.148a.2.2 0 0 0-.135-.042.654.654 0 0 0-.223.05l-.045-.12.904-.373h.143zm-.272-1.593c.092 0 .17.032.234.098a.324.324 0 0 1 .097.238.334.334 0 0 1-.097.24c-.065.066-.143.1-.234.1s-.171-.033-.236-.1-.098-.146-.098-.24.032-.172.097-.238a.316.316 0 0 1 .237-.098zm1.973.682v1.002h.702v.234h-.702v1.977c0 .197.028.331.083.4a.268.268 0 0 0 .215.103.374.374 0 0 0 .21-.068.441.441 0 0 0 .157-.201h.128a1.04 1.04 0 0 1-.325.491.692.692 0 0 1-.433.164.57.57 0 0 1-.295-.085.511.511 0 0 1-.213-.243c-.046-.105-.069-.268-.069-.487v-2.049h-.473v-.11c.12-.049.243-.131.369-.248.125-.117.237-.255.336-.415.05-.084.12-.239.21-.463l.1-.002zm2.029.911v2.449c0 .191.013.318.041.381a.285.285 0 0 0 .122.142c.053.031.151.046.293.046v.12h-1.458v-.12c.146 0 .245-.014.295-.043s.09-.077.12-.143c.03-.066.045-.194.045-.382v-1.175c0-.331-.01-.544-.03-.642-.015-.071-.039-.121-.072-.148a.2.2 0 0 0-.135-.042.654.654 0 0 0-.223.05l-.045-.12.904-.373h.143zm-.272-1.593c.092 0 .17.032.234.098a.324.324 0 0 1 .097.238.334.334 0 0 1-.097.24.318.318 0 0 1-.234.1.317.317 0 0 1-.236-.1c-.066-.066-.098-.146-.098-.24s.032-.172.097-.238a.316.316 0 0 1 .237-.098zm1.976 2.239c.352-.43.687-.646 1.006-.646.164 0 .304.042.422.125.118.083.212.22.282.411.048.133.073.338.073.612v1.301c0 .193.015.325.045.393a.27.27 0 0 0 .116.129c.053.031.152.046.297.046v.12h-1.484v-.12h.062c.14 0 .238-.022.293-.065a.338.338 0 0 0 .116-.192 1.94 1.94 0 0 0 .013-.313V31.59c0-.277-.035-.478-.107-.604-.071-.125-.191-.188-.359-.188-.26 0-.519.144-.777.432v1.607c0 .206.012.334.036.382a.315.315 0 0 0 .126.142c.053.03.163.045.326.045v.12H80.76v-.12h.066c.153 0 .256-.039.31-.118s.08-.229.08-.451v-1.132c0-.366-.008-.589-.024-.669-.017-.08-.041-.134-.075-.163a.203.203 0 0 0-.136-.043.63.63 0 0 0-.22.05l-.049-.12.904-.373h.141l.001.649zm3.284 1.381a.985.985 0 0 1-.422-.381 1.032 1.032 0 0 1-.148-.541c0-.302.112-.562.336-.778.224-.218.511-.326.861-.326.286 0 .534.071.744.213h.636c.094 0 .149.003.164.008a.056.056 0 0 1 .032.028c.013.02.019.055.019.107a.28.28 0 0 1-.017.12.072.072 0 0 1-.034.026.762.762 0 0 1-.165.01h-.39c.122.16.184.364.184.612a.972.972 0 0 1-.321.729c-.214.202-.501.303-.862.303-.149 0-.3-.022-.456-.066a.894.894 0 0 0-.195.221.356.356 0 0 0-.051.161c0 .038.017.074.054.11.036.036.107.061.212.077.061.009.214.017.459.024.45.011.742.026.875.046a.814.814 0 0 1 .486.229.628.628 0 0 1 .182.459c0 .251-.115.486-.347.706-.341.324-.785.485-1.334.485-.422 0-.778-.096-1.068-.29-.164-.111-.246-.227-.246-.346 0-.053.012-.107.036-.16a1.88 1.88 0 0 1 .229-.343c.015-.02.127-.14.334-.36a.992.992 0 0 1-.241-.185.274.274 0 0 1-.07-.185.55.55 0 0 1 .094-.273c.061-.102.205-.249.43-.44zm-.033 1.112a1.71 1.71 0 0 0-.233.316.586.586 0 0 0-.079.27c0 .106.063.199.19.279.219.137.534.206.947.206.394 0 .683-.07.87-.211.187-.141.28-.291.28-.45 0-.115-.056-.198-.167-.246-.114-.049-.339-.078-.675-.087-.491-.014-.869-.04-1.133-.077zm.604-2.979a.511.511 0 0 0-.407.197c-.109.131-.164.332-.164.603 0 .351.074.622.223.815.114.146.258.22.432.22a.509.509 0 0 0 .409-.19c.107-.126.16-.325.16-.596 0-.353-.075-.629-.226-.828a.512.512 0 0 0-.427-.221zm7.334-1.534.049 1.058h-.124a1.327 1.327 0 0 0-.098-.4c-.067-.129-.157-.223-.27-.284s-.261-.092-.444-.092h-.626v3.447c0 .277.03.45.088.519.083.094.211.14.383.14h.154v.123h-1.884v-.123h.157c.188 0 .321-.058.4-.173.048-.071.073-.234.073-.486v-3.447h-.535c-.207 0-.355.016-.443.046a.607.607 0 0 0-.292.243c-.08.12-.129.282-.144.486h-.124l.052-1.058 3.628.001zm1.089 1.374c.455 0 .82.175 1.094.526.234.299.351.643.351 1.031 0 .273-.065.549-.193.828-.129.28-.306.491-.533.632a1.394 1.394 0 0 1-.756.213 1.27 1.27 0 0 1-1.079-.548 1.717 1.717 0 0 1-.338-1.038c0-.279.068-.557.205-.834a1.41 1.41 0 0 1 .54-.612c.224-.131.46-.198.709-.198zm-.102.217a.675.675 0 0 0-.349.105c-.117.07-.212.192-.283.367s-.108.401-.108.676c0 .443.087.826.261 1.148s.402.483.687.483a.637.637 0 0 0 .525-.266c.137-.178.206-.483.206-.915 0-.541-.115-.967-.344-1.278-.157-.214-.355-.32-.595-.32zm2.881.432c.219-.221.347-.349.387-.382.098-.084.205-.15.318-.197a.901.901 0 0 1 .338-.07.74.74 0 0 1 .485.166.817.817 0 0 1 .272.482c.225-.266.415-.441.57-.524.155-.083.315-.125.478-.125.159 0 .301.042.424.125.123.083.221.219.293.408.048.129.073.331.073.605v1.311c0 .191.014.322.043.393a.28.28 0 0 0 .122.125.606.606 0 0 0 .289.052v.12h-1.482v-.12h.062a.511.511 0 0 0 .302-.077.292.292 0 0 0 .108-.17c.009-.038.013-.145.013-.323v-1.311c0-.248-.03-.423-.088-.526-.085-.142-.222-.213-.409-.213a.778.778 0 0 0-.349.088 1.891 1.891 0 0 0-.424.328l-.007.037.007.143v1.454c0 .209.011.339.034.389a.286.286 0 0 0 .129.129c.063.034.171.052.325.052v.12H97.61v-.12c.166 0 .28-.02.342-.06.062-.04.105-.1.129-.179.01-.038.017-.148.017-.33v-1.311c0-.248-.036-.427-.108-.535a.46.46 0 0 0-.403-.213.712.712 0 0 0-.351.096 1.36 1.36 0 0 0-.42.33v1.634c0 .199.013.33.041.389a.282.282 0 0 0 .122.135c.053.03.163.045.326.045v.12h-1.484v-.12c.137 0 .234-.015.289-.045a.292.292 0 0 0 .124-.143c.028-.066.043-.192.043-.381v-1.164c0-.335-.01-.551-.03-.649-.015-.073-.039-.123-.072-.151s-.078-.042-.135-.042a.63.63 0 0 0-.22.05l-.049-.12.904-.373h.141c-.001-.002-.001.648-.001.648zm5.798-.649c.455 0 .82.175 1.094.526.234.299.351.643.351 1.031 0 .273-.065.549-.193.828-.129.28-.306.491-.533.632a1.394 1.394 0 0 1-.756.213 1.27 1.27 0 0 1-1.079-.548 1.717 1.717 0 0 1-.338-1.038c0-.279.068-.557.205-.834a1.41 1.41 0 0 1 .54-.612c.224-.131.46-.198.709-.198zm-.102.217a.675.675 0 0 0-.349.105c-.117.07-.212.192-.283.367a1.798 1.798 0 0 0-.108.676c0 .443.087.826.261 1.148s.402.483.687.483a.637.637 0 0 0 .525-.266c.137-.178.206-.483.206-.915 0-.541-.115-.967-.344-1.278-.156-.214-.354-.32-.595-.32zm2.868-.217v.686c.251-.457.509-.686.773-.686.12 0 .22.037.298.111s.118.16.118.258c0 .087-.028.16-.085.22a.273.273 0 0 1-.203.09c-.077 0-.163-.038-.257-.115-.095-.077-.165-.115-.212-.115-.039 0-.082.023-.128.066a1.59 1.59 0 0 0-.304.45v1.461c0 .169.021.297.062.382.028.06.079.11.15.15.072.04.176.06.311.06v.12h-1.537v-.12c.153 0 .267-.024.341-.073a.292.292 0 0 0 .115-.17c.011-.038.017-.145.017-.323v-1.181c0-.355-.007-.566-.021-.633a.246.246 0 0 0-.079-.148.22.22 0 0 0-.143-.046.646.646 0 0 0-.229.05l-.032-.12.908-.373.137-.001zm2.235 0v.686c.251-.457.509-.686.773-.686.12 0 .22.037.298.111s.118.16.118.258c0 .087-.028.16-.085.22a.273.273 0 0 1-.203.09c-.077 0-.163-.038-.257-.115-.095-.077-.165-.115-.212-.115-.039 0-.082.023-.128.066-.098.091-.199.241-.304.45v1.461c0 .169.021.297.062.382.028.06.079.11.15.15.072.04.176.06.311.06v.12H106.6v-.12c.153 0 .267-.024.341-.073a.292.292 0 0 0 .115-.17c.011-.038.017-.145.017-.323v-1.181c0-.355-.007-.566-.021-.633s-.04-.117-.079-.148a.22.22 0 0 0-.143-.046.646.646 0 0 0-.229.05l-.032-.12.908-.373.137-.001zm2.825 0c.455 0 .82.175 1.094.526.234.299.351.643.351 1.031 0 .273-.065.549-.193.828-.129.28-.306.491-.533.632a1.394 1.394 0 0 1-.756.213 1.27 1.27 0 0 1-1.079-.548 1.717 1.717 0 0 1-.338-1.038c0-.279.068-.557.205-.834a1.41 1.41 0 0 1 .54-.612c.224-.131.46-.198.709-.198zm-.102.217a.675.675 0 0 0-.349.105c-.117.07-.212.192-.283.367a1.798 1.798 0 0 0-.108.676c0 .443.087.826.261 1.148s.402.483.687.483a.637.637 0 0 0 .525-.266c.137-.178.206-.483.206-.915 0-.541-.115-.967-.344-1.278-.156-.214-.354-.32-.595-.32zm1.822-.127h1.259v.123c-.115.009-.192.03-.227.063-.036.033-.054.08-.054.143 0 .068.018.152.056.249l.642 1.754.646-1.428-.171-.45a.534.534 0 0 0-.206-.276c-.048-.031-.137-.05-.269-.056v-.122h1.429v.123c-.157.006-.269.036-.334.087-.044.036-.066.092-.066.17 0 .045.009.09.026.136l.681 1.75.632-1.687a.888.888 0 0 0 .066-.286c0-.042-.021-.08-.064-.113s-.126-.052-.251-.056v-.124h.947v.123c-.19.029-.33.16-.42.393l-1.003 2.626h-.135l-.751-1.946-.875 1.946h-.122l-.964-2.562c-.063-.162-.126-.271-.187-.327a.613.613 0 0 0-.289-.129v-.124h.004z" style="fill:#3e3a39"/></svg>