<svg xmlns="http://www.w3.org/2000/svg" viewBox="0 0 125 35" style="enable-background:new 0 0 125 35" xml:space="preserve"><path d="M27.81 11.87a13.343 13.343 0 0 0-4.786-5.002c-1.184-.736-2.645-1.305-4.381-1.707-1.737-.401-3.803-.601-6.197-.601H1.79v29.383h10.36c2.342 0 4.368-.172 6.078-.513a14.521 14.521 0 0 0 4.717-1.816c1.907-1.158 3.486-2.819 4.736-4.983 1.249-2.163 1.874-4.614 1.874-7.35 0-2.842-.581-5.312-1.745-7.41zm-7.056 12.255c-.645 1.322-1.657 2.378-3.039 3.168a8.642 8.642 0 0 1-2.467.897c-.842.165-2.164.247-3.966.247H9.368V10.045h1.914c1.632 0 2.852.069 3.661.207a8.69 8.69 0 0 1 2.378.78c1.525.776 2.64 1.852 3.345 3.226.703 1.375 1.055 3.03 1.055 4.963 0 1.948-.322 3.582-.967 4.904zm70.924.582c0 2.895-1.228 5.246-3.681 7.055-2.456 1.809-5.785 2.714-9.996 2.714-2.434 0-4.555-.214-6.364-.642a32.722 32.722 0 0 1-5.08-1.628v-7.045h.828a17.552 17.552 0 0 0 5.26 2.881c1.94.671 3.805 1.007 5.593 1.007.461 0 1.066-.04 1.815-.119.75-.078 1.363-.21 1.837-.394.577-.237 1.055-.533 1.429-.888.376-.355.563-.882.563-1.579 0-.645-.274-1.2-.819-1.668-.546-.466-1.346-.825-2.397-1.075a74.763 74.763 0 0 0-3.504-.74 26.746 26.746 0 0 1-3.463-.878c-2.474-.803-4.252-1.891-5.338-3.266-1.084-1.375-1.627-3.082-1.627-5.12 0-2.738 1.226-4.97 3.68-6.701 2.453-1.73 5.608-2.594 9.463-2.594 1.934 0 3.843.186 5.731.561 1.888.375 3.523.846 4.904 1.412v6.769h-.808c-1.184-.948-2.636-1.74-4.352-2.379a15.002 15.002 0 0 0-5.259-.956c-.632 0-1.26.042-1.884.127a7.405 7.405 0 0 0-1.805.484 3.454 3.454 0 0 0-1.323.898c-.368.402-.553.859-.553 1.372 0 .776.297 1.37.89 1.785.591.415 1.709.794 3.354 1.135 1.078.224 2.112.44 3.107.652.993.21 2.063.5 3.208.868 2.25.736 3.909 1.74 4.98 3.009 1.073 1.27 1.61 2.917 1.61 4.943zm31.532 9.236h-7.578V20.998h-11.188v12.945h-7.578V4.56h7.578v10.754h11.188V4.56h7.578zM44.634 4.422v-.027l-6.317-2.812V9.67z"/><path style="fill:#003473" d="M49.95 0 32.4 14.581v13.763l1.745.775 1.754-1.458V16.22L51.737 3.068V.787z"/><path d="M53.683 8.424v17.33c0 1.534-.294 2.549-.847 3.105l-4.817 4.012c.368.183.742.363 1.132.537 3.566 1.588 6.267 1.988 8.1 1.2 1.833-.788 2.75-2.686 2.75-5.697V11.237l-6.318-2.813z"/><path d="m48.02 32.872-.001-.001 4.817-4.012c.553-.556.847-1.57.847-3.105V12.177l-9.308 7.734v13.763l1.745.776.001-.002v.002l1.9-1.578zM63.71 6.118v-.001l-1.788-.787-5.3 4.403L60 11.237V22.92l3.711-3.084V6.116z" style="fill:#1171ab"/><path style="fill:#252186" d="m53.683 8.424.52.232 3.52-2.923V3.452l-1.786-.787-17.548 14.581V31.01l1.743.776 1.756-1.459V18.884l11.795-9.795z"/></svg>